<svg xmlns="http://www.w3.org/2000/svg" viewBox="0 0 34 42" id="bbq">
  <path d="M31,14H29.9A5,5,0,0,0,25,10H9a5,5,0,0,0-4.9,4H3a3,3,0,0,0,0,6A14,14,0,0,0,13.14,33.45l-2.61,2.6A3.07,3.07,0,0,0,10,36a3,3,0,1,0,2.82,4H24.59l1.7,1.71a1,1,0,0,0,1.42,0,1,1,0,0,0,0-1.42l-2-2h0l-4.85-4.84A14,14,0,0,0,31,20a3,3,0,0,0,0-6Zm-3.17,0H23V12h2A3,3,0,0,1,27.83,14ZM18,14V12h3v2Zm-5,0V12h3v2ZM9,12h2v2H6.17A3,3,0,0,1,9,12Zm1,28a1,1,0,1,1,1-1A1,1,0,0,1,10,40Zm12.59-2H12.82a2.91,2.91,0,0,0-.51-.89l3.19-3.19a14.1,14.1,0,0,0,3,0ZM17,32A12,12,0,0,1,5,20H29A12,12,0,0,1,17,32ZM31,18H3a1,1,0,0,1,0-2H31a1,1,0,0,1,0,2ZM15.29,3.71a1,1,0,0,1-.18-1.16l1-2a1,1,0,1,1,1.78.9L17.22,2.8l1.49,1.49a1,1,0,0,1,.18,1.16l-1,2A1,1,0,0,1,17,8a.93.93,0,0,1-.45-.11,1,1,0,0,1-.44-1.34l.67-1.35Zm-4,0a1,1,0,0,1-.18-1.16l1-2a1,1,0,1,1,1.78.9L13.22,2.8l1.49,1.49a1,1,0,0,1,.18,1.16l-1,2A1,1,0,0,1,13,8a.93.93,0,0,1-.45-.11,1,1,0,0,1-.44-1.34l.67-1.35Zm8,0a1,1,0,0,1-.18-1.16l1-2a1,1,0,1,1,1.78.9L21.22,2.8l1.49,1.49a1,1,0,0,1,.18,1.16l-1,2A1,1,0,0,1,21,8a.93.93,0,0,1-.45-.11,1,1,0,0,1-.44-1.34l.67-1.35Z"></path>
</svg>
