<svg xmlns="http://www.w3.org/2000/svg" viewBox="0 0 64 64" id="bookshelf">
  <path d="M63,12H1a.99943.99943,0,0,1-1-1V7A.99943.99943,0,0,1,1,6H63a.99943.99943,0,0,1,1,1v4A.99943.99943,0,0,1,63,12ZM2,10H62V8H2Z"></path>
  <path d="M6,31H2a.99943.99943,0,0,1-1-1V11a.99943.99943,0,0,1,1-1H6a.99943.99943,0,0,1,1,1V30A.99943.99943,0,0,1,6,31ZM3,29H5V12H3Z"></path>
  <path d="M63,35H1a.99943.99943,0,0,1-1-1V30a.99943.99943,0,0,1,1-1H63a.99943.99943,0,0,1,1,1v4A.99943.99943,0,0,1,63,35ZM2,33H62V31H2Z"></path>
  <path d="M44 31H40a.99943.99943 0 01-1-1V11a.99943.99943 0 011-1h4a.99943.99943 0 011 1V30A.99943.99943 0 0144 31zm-3-2h2V12H41zM63 58H1a.99943.99943 0 01-1-1V53a.99943.99943 0 011-1H63a.99943.99943 0 011 1v4A.99943.99943 0 0163 58zM2 56H62V54H2z"></path>
  <path d="M62 54H58a.99943.99943 0 01-1-1V34a.99943.99943 0 011-1h4a.99943.99943 0 011 1V53A.99943.99943 0 0162 54zm-3-2h2V35H59zM24 54H20a.99943.99943 0 01-1-1V34a.99943.99943 0 011-1h4a.99943.99943 0 011 1V53A.99943.99943 0 0124 54zm-3-2h2V35H21zM11 31a.99943.99943 0 01-1-1V16H7V30a1 1 0 01-2 0V15a.99943.99943 0 011-1h5a.99943.99943 0 011 1V30A.99943.99943 0 0111 31z"></path>
  <path d="M11,21H6a1,1,0,0,1,0-2h5a1,1,0,0,1,0,2Z"></path>
  <path d="M16,31a.99943.99943,0,0,1-1-1V18H12V30a1,1,0,0,1-2,0V17a.99943.99943,0,0,1,1-1h5a.99943.99943,0,0,1,1,1V30A.99943.99943,0,0,1,16,31Z"></path>
  <path d="M21,31a.99943.99943,0,0,1-1-1V16H17V30a1,1,0,0,1-2,0V15a.99943.99943,0,0,1,1-1h5a.99943.99943,0,0,1,1,1V30A.99943.99943,0,0,1,21,31Z"></path>
  <path d="M26,31a.99943.99943,0,0,1-1-1V21H22v9a1,1,0,0,1-2,0V20a.99943.99943,0,0,1,1-1h5a.99943.99943,0,0,1,1,1V30A.99943.99943,0,0,1,26,31Z"></path>
  <path d="M21 27H16a1 1 0 010-2h5a1 1 0 010 2zM36.11914 31a.99417.99417 0 01-.25976-.03418L31.0293 29.67188a.99925.99925 0 01-.707-1.22461L34.2041 13.958a1 1 0 011.22461-.707l4.83008 1.29394a.99924.99924 0 01.707 1.22461L37.084 30.25879A.99875.99875 0 0136.11914 31zM32.5127 27.999l2.89843.77637 3.36426-12.55762L35.877 15.44141zM51 22H50a3.00328 3.00328 0 01-3-3V16a.99943.99943 0 011-1h5a.99943.99943 0 011 1v3A3.00328 3.00328 0 0151 22zm-2-5v2a.98961.98961 0 001 1h1a.98961.98961 0 001-1V17z"></path>
  <path d="M50.5 31a.99943.99943 0 01-1-1V21a1 1 0 012 0v9A.99943.99943 0 0150.5 31zM60 22H59a3.00328 3.00328 0 01-3-3V16a.99943.99943 0 011-1h5a.99943.99943 0 011 1v3A3.00328 3.00328 0 0160 22zm-2-5v2a.98961.98961 0 001 1h1a.98961.98961 0 001-1V17z"></path>
  <path d="M59.5 31a.99943.99943 0 01-1-1V21a1 1 0 012 0v9A.99943.99943 0 0159.5 31zM58 54a.99943.99943 0 01-1-1V39H54V53a1 1 0 01-2 0V38a.99943.99943 0 011-1h5a.99943.99943 0 011 1V53A.99943.99943 0 0158 54z"></path>
  <path d="M58,44H53a1,1,0,0,1,0-2h5a1,1,0,0,1,0,2Z"></path>
  <path d="M53,54a.99943.99943,0,0,1-1-1V41H49V53a1,1,0,0,1-2,0V40a.99943.99943,0,0,1,1-1h5a.99943.99943,0,0,1,1,1V53A.99943.99943,0,0,1,53,54Z"></path>
  <path d="M48,54a.99943.99943,0,0,1-1-1V39H44V53a1,1,0,0,1-2,0V38a.99943.99943,0,0,1,1-1h5a.99943.99943,0,0,1,1,1V53A.99943.99943,0,0,1,48,54Z"></path>
  <path d="M43,54a.99943.99943,0,0,1-1-1V44H39v9a1,1,0,0,1-2,0V43a.99943.99943,0,0,1,1-1h5a.99943.99943,0,0,1,1,1V53A.99943.99943,0,0,1,43,54Z"></path>
  <path d="M48 50H43a1 1 0 010-2h5a1 1 0 010 2zM29 54H24a1 1 0 010-2h4V38.6084H24a1 1 0 010-2h5a.99942.99942 0 011 1V53A.99943.99943 0 0129 54z"></path>
  <path d="M34 54H29a.99943.99943 0 01-1-1V40a.99943.99943 0 011-1h5a.99943.99943 0 011 1V53A.99943.99943 0 0134 54zm-4-2h3V41H30zM15 50a.99943.99943 0 01-1-1V44a.62319.62319 0 00-.34277-.55273l-1.1045-.55274A1.0004 1.0004 0 0112 42V40H10v2a1.0004 1.0004 0 01-.55273.89453l-1.10547.55274A.62408.62408 0 008 44v5a1 1 0 01-2 0V44a2.60718 2.60718 0 011.44629-2.3418L8 41.38184V39a.99943.99943 0 011-1h4a.99943.99943 0 011 1v2.38184l.55273.27636A2.60632 2.60632 0 0116 44v5A.99943.99943 0 0115 50z"></path>
  <path d="M16 54H6a.99943.99943 0 01-1-1V49a.99943.99943 0 011-1H16a.99943.99943 0 011 1v4A.99943.99943 0 0116 54zM7 52h8V50H7zM29 43H24a1 1 0 010-2h5a1 1 0 010 2zM34 45H29a1 1 0 010-2h5a1 1 0 010 2z"></path>
  <g>
    <path d="M53,48H48a1,1,0,0,1,0-2h5a1,1,0,0,1,0,2Z"></path>
  </g>
  <g>
    <path d="M16,26H11a1,1,0,0,1,0-2h5a1,1,0,0,1,0,2Z"></path>
  </g>
</svg>
