<svg xmlns="http://www.w3.org/2000/svg" enable-background="new 0 0 48 48" viewBox="0 0 48 48" id="door">
  <path d="M10,45h28c0.55,0,1-0.45,1-1V4c0-0.55-0.45-1-1-1H10C9.45,3,9,3.45,9,4v40C9,44.55,9.45,45,10,45z M11,5h26v38H11V5z"></path>
  <path d="M35,8c0-0.55-0.45-1-1-1H14c-0.55,0-1,0.45-1,1v32c0,0.55,0.45,1,1,1h20c0.55,0,1-0.45,1-1V26.22c0.64-0.57,1-1.37,1-2.22
	s-0.36-1.65-1-2.22V8z M25,9h8v6h-8V9z M23,39h-8v-6h8V39z M23,31h-8V17h8V31z M23,15h-8V9h8V15z M33,39h-8v-6h8V39z M33,31h-8V17h8
	v4c-1.65,0-3,1.35-3,3s1.35,3,3,3V31z M33,25c-0.55,0-1-0.45-1-1s0.45-1,1-1s1,0.45,1,1S33.55,25,33,25z"></path>
</svg>
